<?xml version="1.0" standalone="no"?>
<!DOCTYPE svg PUBLIC "-//W3C//DTD SVG 20010904//EN"
 "http://www.w3.org/TR/2001/REC-SVG-20010904/DTD/svg10.dtd">
<svg version="1.0" xmlns="http://www.w3.org/2000/svg"
 width="650.000000pt" height="650.000000pt" viewBox="0 0 650.000000 650.000000"
 preserveAspectRatio="xMidYMid meet">
<metadata>
Created by potrace 1.11, written by Peter Selinger 2001-2013
</metadata>
<g transform="translate(0.000000,650.000000) scale(0.100000,-0.100000)"
fill="#000000" stroke="none">
<path d="M3175 3210 l-2680 -2680 33 -32 32 -33 2682 2682 2682 2682 -29 31
c-16 16 -31 30 -34 30 -3 0 -1212 -1206 -2686 -2680z"/>
<path d="M670 4785 l0 -1075 705 0 705 0 0 170 0 170 -530 0 -530 0 0 905 0
905 -175 0 -175 0 0 -1075z"/>
<path d="M2360 5685 l0 -175 180 0 180 0 0 175 0 175 -180 0 -180 0 0 -175z"/>
<path d="M2367 5243 c-4 -3 -7 -350 -7 -770 l0 -763 180 0 180 0 0 770 0 770
-173 0 c-96 0 -177 -3 -180 -7z"/>
<path d="M3344 2673 c2 -10 115 -486 251 -1058 135 -572 248 -1048 251 -1057
5 -16 22 -18 178 -18 l173 0 47 178 c123 457 347 1279 352 1292 9 21 1 48 204
-735 99 -385 183 -708 186 -717 5 -16 22 -18 179 -18 l173 0 16 73 c9 39 124
522 254 1072 l238 1000 -180 3 c-98 1 -181 1 -183 -2 -3 -2 -72 -323 -154
-713 -83 -389 -156 -735 -163 -768 -7 -33 -16 -53 -19 -45 -3 8 -94 339 -202
735 -108 396 -201 737 -207 758 l-11 37 -133 0 -133 0 -15 -52 c-9 -29 -103
-375 -211 -768 -108 -393 -197 -719 -198 -724 -2 -4 -49 209 -104 475 -56 266
-130 616 -164 777 l-62 292 -184 0 c-171 0 -184 -1 -179 -17z"/>
</g>
</svg>
